<svg class="c-icon" id="nav-account-icon" xmlns="http://www.w3.org/2000/svg" x="0px" y="0px" viewBox="0 0 21 21" width="21" height="21">
    <path class="c-icon-path" class="st0" d="M3.8,19l1-7c0.2-1.5,1.5-2.6,3-2.6h2.5c0.1,0,0.1,0,0.2,0c0.1,0,0.1,0,0.2,0h2.5
        c1.5,0,2.8,1.1,3,2.6l1,7H3.8z M10.5,2c1.5,0,2.8,1.2,2.8,2.8c0,1.5-1.2,2.7-2.6,2.7h-0.4C8.9,7.4,7.7,6.2,7.7,4.8
        C7.7,3.2,9,2,10.5,2L10.5,2z M18.1,11.8c-0.3-2.1-1.9-3.7-3.9-4.1c0.6-0.8,1-1.8,1-2.9c0-2.7-2.1-4.8-4.7-4.8S5.7,2.1,5.7,4.8
        c0,1.1,0.4,2.1,1,2.9c-2,0.4-3.6,2.1-3.9,4.1L1.5,21h18L18.1,11.8z"/>
</svg>
