<svg class="o-logo__asset o-logo--wordmark o-logo-svg" itemprop="logo" xmlns="http://www.w3.org/2000/svg" x="0px" y="0px" width="230" height="36" viewBox="0 0 230 36" preserveAspectRatio="xMinYMid meet">
    <path class="o-logo__wordmark" d="M161.2,30.3c0,0.8-0.4,1.3-1.1,1.3c-0.7,0-1.1-0.5-1.1-1.3V5.7c0-0.8,0.4-1.3,1.1-1.3
        c0.7,0,1.1,0.5,1.1,1.3V30.3z M160.1,0c-2.9,0-5.2,2.5-5.2,6V30c0,3.6,2.4,6,5.2,6c2.9,0,5.2-2.4,5.2-6V6C165.3,2.5,163,0,160.1,0
        M10,18.4H6c-0.3,0-0.5,0.2-0.5,0.5v2.7c0,0.3,0.2,0.5,0.5,0.5l0,0h0.4v8.5C6.4,31.5,6,32,5.3,32c-0.7,0-1.1-0.5-1.1-1.3v-25
        c0-0.8,0.5-1.3,1.1-1.3c0.7,0,1.2,0.5,1.2,1.3v7l0,0c0,0.3,0.2,0.5,0.5,0.5h2.7c0.3,0,0.5-0.2,0.5-0.5l0,0V6c0-3.5-2.1-6-4.9-6
        C2.4,0,0.2,2.5,0.2,6V30c0,4,1.8,6,4.6,6c1.1,0,2.2-0.5,2.8-1.7L8,35.6h2l0,0c0.3,0,0.5-0.2,0.5-0.5V19C10.5,18.6,10.3,18.4,10,18.4
        M21.2,4.7L21.2,4.7c0.3,0,0.5-0.2,0.5-0.5V1c0-0.3-0.2-0.5-0.5-0.5h-7.5c-0.3,0-0.5,0.2-0.5,0.5V35c0,0.3,0.2,0.5,0.5,0.5h7.5
        c0.3,0,0.5-0.2,0.5-0.5v-3.2c0-0.3-0.2-0.5-0.5-0.5h-3.9V19.6h2.5l0,0l0,0c0.3,0,0.5-0.2,0.5-0.5v-3.2l0,0c0-0.3-0.2-0.5-0.5-0.5
        h-2.5V4.6L21.2,4.7L21.2,4.7z M69.4,4.7L69.4,4.7c0.3,0,0.5-0.2,0.5-0.5V1c0-0.3-0.2-0.5-0.5-0.5H62c-0.3,0-0.5,0.2-0.5,0.5V35
        c0,0.3,0.2,0.5,0.5,0.5h7.5c0.3,0,0.5-0.2,0.5-0.5v-3.2c0-0.3-0.2-0.5-0.5-0.5h-3.9V19.6H68l0,0l0,0c0.3,0,0.5-0.2,0.5-0.5v-3.2l0,0
        c0-0.3-0.2-0.5-0.5-0.5h-2.5V4.6L69.4,4.7L69.4,4.7z M58.4,31.5L58.4,31.5h-3.6V1l0,0c0-0.3-0.2-0.5-0.5-0.5h-3
        c-0.3,0-0.5,0.2-0.5,0.5V35c0,0.3,0.2,0.5,0.5,0.5h7.2c0.3,0,0.5-0.2,0.5-0.5v-3C58.9,31.7,58.7,31.5,58.4,31.5 M177.8,0.5h-2.9
        c-0.3,0-0.5,0.2-0.5,0.5l0,0v29.3c0,0.8-0.4,1.3-1.1,1.3c-0.6,0-1.1-0.5-1.1-1.3V1l0,0c0-0.3-0.2-0.5-0.5-0.5h-3
        c-0.3,0-0.5,0.2-0.5,0.5v29c0,3.6,2.3,6,5.1,6c2.9,0,5-2.4,5-6V1C178.3,0.7,178.1,0.5,177.8,0.5 M229.3,31.5L229.3,31.5h-3.6V1l0,0
        c0-0.3-0.2-0.5-0.5-0.5h-3l0,0c-0.3,0-0.5,0.2-0.5,0.5V35c0,0.3,0.2,0.5,0.5,0.5h7.2c0.3,0,0.5-0.2,0.5-0.5v-3
        C229.8,31.7,229.5,31.5,229.3,31.5 M151.5,0.5h-3c-0.3,0-0.5,0.2-0.5,0.5l0,0v29.3c0,0.8-0.4,1.3-1.1,1.3c-0.7,0-1.1-0.5-1.1-1.3
        v-8.2l0,0c0-0.3-0.2-0.5-0.5-0.5h-2.7c-0.3,0-0.5,0.2-0.5,0.5v8.2c0,3.4,2.2,5.7,5.1,5.7c2.9,0,4.8-2.3,4.8-5.7V1
        C152.1,0.7,151.8,0.5,151.5,0.5 M128.1,16.5c-1.9-4.6-2.7-6.1-2.7-10.7c0-1.1,0.6-1.6,1.4-1.6c0.7,0,1.2,0.5,1.2,1.6v4.8l0,0
        c0,0.3,0.2,0.5,0.5,0.5h2.5l0,0c0.3,0,0.5-0.2,0.5-0.5l0,0V6.4c0-4.4-1.9-6.4-4.8-6.4c-3.8,0-5.5,2.9-5.5,7c0,3.6,2.3,9.2,3.8,12.8
        c1.8,4.1,2.6,6.9,2.6,10.4c0,1.1-0.5,1.8-1.4,1.8c-1.1,0-1.5-0.7-1.5-1.8v-4.4c0-0.3-0.2-0.5-0.5-0.5h-2.5l0,0
        c-0.3,0-0.5,0.2-0.5,0.5v3.8c0,4.2,1.9,6.4,5.2,6.4c2.1,0,5.2-1.3,5.2-6.7C131.6,25.5,130,21,128.1,16.5 M114,0.5h-2.4
        c-0.3,0-0.5,0.2-0.5,0.5v21.4l-0.6-4.8l-2.8-16.7l0,0c0-0.2-0.2-0.4-0.5-0.4H104c-0.3,0-0.5,0.2-0.5,0.5V35c0,0.3,0.2,0.5,0.5,0.5
        h2.4c0.3,0,0.5-0.2,0.5-0.5l0,0V13.5l0.8,4.8l3.3,16.9l0,0l0,0l0,0c0,0.2,0.3,0.4,0.5,0.4h2.5c0.3,0,0.5-0.2,0.5-0.5V1
        C114.5,0.7,114.3,0.5,114,0.5 M34.9,0.5h-2.4c-0.3,0-0.5,0.2-0.5,0.5v21.4l-0.6-4.8L28.7,0.9l0,0c0-0.2-0.2-0.4-0.5-0.4h-3.3
        c-0.3,0-0.5,0.2-0.5,0.5V35c0,0.3,0.2,0.5,0.5,0.5h2.4c0.3,0,0.5-0.2,0.5-0.5l0,0V13.5l0.8,4.8L32,35.2l0,0l0,0l0,0
        c0,0.2,0.3,0.4,0.5,0.4H35c0.3,0,0.5-0.2,0.5-0.5V1C35.5,0.7,35.2,0.5,34.9,0.5 M187.3,15c0,1.1-0.3,1.4-0.7,1.4h-1.1V4.7h1.1
        c0.5,0,0.7,0.4,0.7,1.4V15z M191.4,29.7v-7.5c0-1.7-0.9-2.7-2-3.6c1.1-0.9,1.9-2,1.9-3.6V6c0-4.5-2.6-5.5-4.6-5.5h-4.8
        c-0.3,0-0.5,0.2-0.5,0.5v34.1c0,0.3,0.2,0.5,0.5,0.5h3.1c0.3,0,0.5-0.2,0.5-0.5l0,0V20.5h1c0.6,0,0.9,0.6,0.9,1.4v8.3
        c0,1.8,0.4,5.4,1,5.4h3.6v-0.2C191.7,33.7,191.4,31.9,191.4,29.7 M212.6,24.7l1-15.5l1.1,15.5H212.6z M219,35L219,35l-3.1-34.1l0,0
        c0-0.3-0.2-0.5-0.5-0.5c0,0,0,0,0,0h-3.5c0,0,0,0,0,0c-0.3,0-0.5,0.2-0.5,0.5l0,0L208.1,35c0,0.3,0.2,0.5,0.5,0.5h2.7
        c0.3,0,0.5-0.2,0.5-0.5l0,0l0.4-5.9h2.7l0.2,5.9l0,0c0,0.3,0.2,0.5,0.5,0.5l0,0h2.8C218.8,35.5,219,35.3,219,35
        C219,35,219,35,219,35 M94.5,24.7l1-15.5l1.1,15.5H94.5z M100.9,35L100.9,35L97.8,0.9l0,0c0-0.3-0.2-0.5-0.5-0.5c0,0,0,0,0,0h-3.5
        c0,0,0,0,0,0c-0.3,0-0.5,0.2-0.5,0.5l0,0L90.1,35c0,0.3,0.2,0.5,0.5,0.5h2.7c0.3,0,0.5-0.2,0.5-0.5l0,0l0.4-5.9h2.7l0.2,5.9l0,0
        c0,0.3,0.2,0.5,0.5,0.5l0,0h2.8C100.7,35.5,101,35.3,100.9,35C100.9,35,100.9,35,100.9,35 M205.1,0.5h-2.4c-0.3,0-0.5,0.2-0.5,0.5
        v21.4l-0.6-4.8l-2.8-16.7l0,0c0-0.2-0.2-0.4-0.5-0.4h-3.3c-0.3,0-0.5,0.2-0.5,0.5v34.1c0,0.3,0.2,0.5,0.5,0.5h2.4
        c0.3,0,0.5-0.2,0.5-0.5l0,0V13.5l0.8,4.8l3.3,16.9l0,0l0,0l0,0c0,0.2,0.3,0.4,0.5,0.4h2.5c0.3,0,0.5-0.2,0.5-0.5V1
        C205.6,0.7,205.4,0.5,205.1,0.5 M47.7,0.5h-9.2c-0.3,0-0.5,0.2-0.5,0.5v3.5c0,0.3,0.2,0.5,0.5,0.5l0,0H41V35l0,0
        c0,0.3,0.2,0.5,0.5,0.5h3.1c0.3,0,0.5-0.2,0.5-0.5l0,0V4.9h2.5l0,0c0.3,0,0.5-0.2,0.5-0.5V1C48.2,0.7,47.9,0.5,47.7,0.5 M117.4,5.8
        c0.6-0.1,1-0.2,1.4-0.4c0.4-0.2,0.7-0.5,0.9-0.8c0.2-0.3,0.4-0.6,0.5-1c0.1-0.4,0.2-0.8,0.2-1.2c0-0.3,0-0.6-0.1-0.9
        c-0.1-0.3-0.2-0.5-0.4-0.7s-0.4-0.4-0.7-0.5C119,0.1,118.7,0,118.3,0c-0.3,0-0.6,0-0.8,0.2c-0.3,0.1-0.5,0.3-0.7,0.5
        c-0.2,0.2-0.3,0.4-0.5,0.7s-0.2,0.5-0.2,0.8c0,0.3,0,0.6,0.2,0.8s0.3,0.5,0.5,0.7c0.2,0.2,0.4,0.3,0.7,0.5c0.3,0.1,0.5,0.2,0.8,0.2
        c0.4,0,0.8-0.1,1.2-0.3c0.4-0.2,0.6-0.5,0.8-0.9c-0.1,0.7-0.4,1.3-0.9,1.8c-0.5,0.4-1.1,0.7-2,0.9L117.4,5.8z M87,0.5h-4.2
        c-0.3,0-0.5,0.2-0.5,0.5l0,0l-1.4,13.3l-0.6,8.9l-0.7-8.9L78.1,0.9l0,0c0-0.3-0.2-0.5-0.5-0.5h-4.4c-0.3,0-0.5,0.2-0.5,0.5v34.1v0
        l0,0c0,0.3,0.2,0.5,0.5,0.5h2.4c0.3,0,0.5-0.2,0.5-0.5c0,0,0,0,0,0V7.2l0.4,7.7l1.8,20.1l0,0c0,0.3,0.2,0.5,0.5,0.5h1.9
        c0.3,0,0.5-0.2,0.5-0.5l0,0l2-20.1l0.4-7.7V35l0,0c0,0.3,0.2,0.5,0.5,0.5H87c0.3,0,0.5-0.2,0.5-0.5l0,0V1C87.5,0.7,87.3,0.5,87,0.5"
        />
</svg>
