<svg xmlns="http://www.w3.org/2000/svg" viewBox="0 0 90 32" width="90px" height="32px"><defs><style>.bmas{fill:#0f8bcc;}</style></defs><path class="bmas" d="M64.55,15.43l1,2.2h-2ZM35.43,13.92v0a1.05,1.05,0,0,0-1.06-1.06H33v2.09h1.33A1,1,0,0,0,35.43,13.92Zm-.33,3H33V19h2.05a1,1,0,0,0,1.1-1V18A1.06,1.06,0,0,0,35.1,16.92ZM90,0V32H0V0ZM23.73,12a.44.44,0,0,0-.2-.39L16.7,7.69a.32.32,0,0,0-.09,0,.24.24,0,0,0-.24.21v3.76a.21.21,0,0,0,.11.18l3.36,1.93a.44.44,0,0,1,.21.38v3.7a.44.44,0,0,1-.21.37L16.6,20.06a.49.49,0,0,1-.44,0l-3.27-1.88a.41.41,0,0,1-.22-.37V10a.2.2,0,0,0,0-.11.21.21,0,0,0-.29-.08l-3.14,1.8A.45.45,0,0,0,9,12v7.9a.44.44,0,0,0,.21.38l6.93,4a.44.44,0,0,0,.43,0l7-4a.4.4,0,0,0,.2-.36Zm14.75,6A2.71,2.71,0,0,0,37,15.6a2.51,2.51,0,0,0,.74-1.81,3.16,3.16,0,0,0-3.14-3.14h-4V21.19h4.68A3.13,3.13,0,0,0,38.48,18.06Zm16.16-7.53-5.26,5.28-5.25-5.28V21.19h2.37V16l2.89,2.88L52.26,16v5.16h2.38ZM69.75,21.19l-5.2-10.66L59.36,21.19h2.49l.76-1.63H66.5l.76,1.63Zm11.25-3A3.43,3.43,0,0,0,78.69,15l-.57-.25c-1-.43-1.43-.73-1.43-1.28v0a.77.77,0,0,1,.82-.7c.48,0,.81.14,1.35.79l1.6-1.69a3.5,3.5,0,0,0-2.95-1.32,3.08,3.08,0,0,0-3.21,3,3.65,3.65,0,0,0,2.46,3.31l.6.27c.89.4,1.23.68,1.23,1.17s-.28.76-1,.76a2.55,2.55,0,0,1-1.94-1.31l-1.8,1.47a4.08,4.08,0,0,0,3.8,2.07A3.09,3.09,0,0,0,81,18.19Z"/></svg>
