<svg xmlns="http://www.w3.org/2000/svg" viewBox="0 0 100 144"><defs><style>.c-login-logo{fill:#fff;}</style></defs><path class="c-login-logo" d="M37.57,53.15V79.59a1.47,1.47,0,0,0,.73,1.27l11.1,6.36a1.65,1.65,0,0,0,1.5,0l11-6.33a1.47,1.47,0,0,0,.73-1.27V67.07a1.49,1.49,0,0,0-.73-1.28L50.49,59.24a.72.72,0,0,1-.37-.63V45.88a.76.76,0,0,1,.81-.72.84.84,0,0,1,.3.08L74.41,58.63A1.45,1.45,0,0,1,75.1,60v27a1.41,1.41,0,0,1-.7,1.24L50.8,101.61a1.49,1.49,0,0,1-1.47-.12L25.83,88a1.45,1.45,0,0,1-.73-1.27V59.92a1.53,1.53,0,0,1,.72-1.3l10.65-6.11a.73.73,0,0,1,1,.27A.79.79,0,0,1,37.57,53.15Z"/></svg>
