<svg xmlns="http://www.w3.org/2000/svg" viewBox="0 0 316.39 89.43"><title>Asset 5</title><g id="Layer_2" data-name="Layer 2"><g id="Layer_1-2" data-name="Layer 1"><path d="M55.74,48.61a5.67,5.67,0,0,1-.94,1.6,4,4,0,0,0-.93,1.93v.2a14.44,14.44,0,0,1-1.4,3.26,15.67,15.67,0,0,1-2.66,4.06A17.64,17.64,0,0,0,48.14,62a17.28,17.28,0,0,1-1.79,2.47,33.42,33.42,0,0,0-2.8,3.79A11.63,11.63,0,0,1,40,72.05a23.35,23.35,0,0,0-3.13,2.2A21.53,21.53,0,0,1,34,76.44l-1.67.94a16.62,16.62,0,0,1-1.8,1L29,79.24a8.33,8.33,0,0,1-1.8.8,21.68,21.68,0,0,1-3.4,1.2,12.85,12.85,0,0,1-3.39.47,11.69,11.69,0,0,1-5.06-.8,36.52,36.52,0,0,1-4.8-1.74,8.07,8.07,0,0,1-3.93-3.26l-1.6-2a9.46,9.46,0,0,1-1.66-2.53C1.13,68.05,0,63.53,0,57.87c0-3.27.93-8.39,2.86-15.52C4,38,6.39,32.56,10,25.84A69.52,69.52,0,0,1,23.11,8.39,6.38,6.38,0,0,0,24,7.52,18.45,18.45,0,0,1,28.9,3.93l1.6-.87,1.73-.86,1.53-.74A22.12,22.12,0,0,1,41,0a10.59,10.59,0,0,1,4.53,1.13A3.74,3.74,0,0,1,47.94,4.4a1.8,1.8,0,0,0,.34.93,15.57,15.57,0,0,1,2.59,8.52,44.81,44.81,0,0,1-1.53,8,17.22,17.22,0,0,1-2.06,4.33l-1.67,2.66L44.28,31A14.93,14.93,0,0,1,41.75,34c-.53.53-2.06,1.66-2.66,2.13l-1.4,1.33C36.56,38.49,34,40,32.3,40a26.1,26.1,0,0,1-3.8-.47,3.73,3.73,0,0,1-2.13-1.19,3.2,3.2,0,0,1-1.27-2.2.49.49,0,0,1,.54-.53l1.73.73a6.76,6.76,0,0,0,4.13-1.2,44.41,44.41,0,0,0,8.92-12l2.26-5.2a15.14,15.14,0,0,0,1.2-5.19c0-3.4-.53-5.13-1.53-5.13a11,11,0,0,0-4.19,1.27,24.29,24.29,0,0,0-4.73,2.66,67.54,67.54,0,0,0-6.93,5.73l-1.79,1.93a31.66,31.66,0,0,0-2,2.53l-1.53,2.06c-.2.2-.8,1.2-1.94,2.93a15.22,15.22,0,0,1-2.33,3.13,14.35,14.35,0,0,0-2.79,4.06c-1.2,2.2-2,3.33-2.33,3.4-.74.33-1.6,1.4-2.47,3.33a33.87,33.87,0,0,0-1.86,5.19,29.61,29.61,0,0,1-1.33,4.4,34.47,34.47,0,0,0-1.87,11c0,1.59.13,2.39.33,2.39A5.23,5.23,0,0,0,5,62c.2-1.06.47-1.59.74-1.59.53,0,1,.8,1,1.39,0,.34-.14,1.34-.14,1.8a22,22,0,0,0,1.2,6.66l.53,1.8a7.88,7.88,0,0,0,1.14,2.46c2.19,2.33,3.06,2.73,5.46,2.73,4.86,0,10.85-2.26,15.64-5.72l1.27-.8a25.62,25.62,0,0,0,4.26-3.26,15.48,15.48,0,0,1,4.6-3.13,10.15,10.15,0,0,0-.4,1.46c1.26,0,3.26-1.53,4.33-2.93.59-.73,2.72-3,2.53-3.46,0-.27-.47-.87-.47-.93a.23.23,0,0,1,.07-.2,39,39,0,0,1,5-6.8l1.07-1.06c1.33-1.27,2.26-2.13,2.59-2.13h.07c.07.06.07.06.13.06A.5.5,0,0,1,55.74,48.61ZM4.59,45.35c-.2.06-.26.13-.26.26l.06.07v.13a.55.55,0,0,0,.2-.33ZM5.13,43c0,.06.06.13.13.2.53,0,.6-1,.6-1.4A1.63,1.63,0,0,0,5.13,43ZM6.19,56.93c.07.07.07.2.07.4,0,.8-.13,1.2-.33,1.2s-.27-.2-.27-.53c0-.73.13-1.07.4-1.07ZM6,41.35H6Zm.07.07c-.07,0-.13.07-.13.27.06-.07.06-.07.06-.14Zm.13,0c-.06-.07-.06-.07-.13-.07S6.13,41.42,6.19,41.42Zm.93,12.12c0,.33-.26.66-.73,1a3,3,0,0,1,.4-1.6C7,52.94,7.12,53.14,7.12,53.54Zm-.73,1v0Zm.87-3.27H7.12l.07-.2Zm.46-1.93c0-.06.07-.13.2-.13v.13a.14.14,0,0,1-.13.14C7.72,49.41,7.72,49.41,7.72,49.34Zm2.2-5.92c.07.06.07.06.13.06a4.71,4.71,0,0,1-1.66,3.33c-.13,0-.2,0-.2-.06a4.52,4.52,0,0,1,.67-2c.46-.93.8-1.4,1-1.4Zm-1.4-8.79c0,.2.07.33.27.33.4,0,.8-.47,1.13-1.33a6.76,6.76,0,0,0,.53-2.07c-.79.4-1.39,1.4-1.86,2.93C8.59,34.56,8.52,34.56,8.52,34.63Zm1.67,6.52c0-.06.06-.06.13-.06S10.25,41.15,10.19,41.15Zm.13-.06c-.07,0-.07,0-.07-.07a.18.18,0,0,1,.2-.2c0,.07,0,.07-.06.13Zm.07.06c-.07,0-.07,0-.07-.06Zm.06-.4h.07l-.07.07Zm.74-10c0-.07,0-.07-.07-.14,0,.14,0,.2-.07.27A.15.15,0,0,0,11.19,30.7Zm1,5.19.26.2ZM31.7,37.42a.33.33,0,0,0,.33-.26.56.56,0,0,0-.4.13Zm2.93-2.53a6.16,6.16,0,0,0,2.53-3.33c-.54.07-1.54.74-3,2.13S32,36.16,32,37.09A2.89,2.89,0,0,0,33.63,36Zm3.53-1.33-.07-.13c0-.07,0-.07-.07-.07-.33,0-.73.27-1.06.87,0,.2.06.33.2.33A1.51,1.51,0,0,0,38.16,33.56Zm-.8-2.33c-.07-.07-.07-.07-.07-.13s-.07.2-.07.33C37.29,31.36,37.36,31.3,37.36,31.23ZM41,29.77a.56.56,0,0,0-.13-.34.78.78,0,0,0-.6.67c0,.2.13.26.33.26a1,1,0,0,0,.4-.53Zm-.27,34.56h0ZM46,25.1c0,.07.07.2.27.27.47,0,.93-1,1.53-3.06,0-.34-.07-.54-.27-.54s-.73,1.07-1.46,3.2Z"/><path d="M83.57,52.07a6.83,6.83,0,0,1-1.33,3.6c-.4.66-.8,1.2-1.13,1.66-.6.87-2.13,2.73-2.4,3.07-.53.73-1.66,2.39-3.39,5.06a34.21,34.21,0,0,1-4.4,5.86,5,5,0,0,0-1.26,2.06A7.17,7.17,0,0,1,66,77.51a11,11,0,0,1-5,1.4,9.63,9.63,0,0,1-3.46-.6c-2.07-.73-2.93-1.4-5.06-3.2-1.87-1.86-2.8-5.06-2.8-9.65A20.93,20.93,0,0,0,50,61.6a21.16,21.16,0,0,1,.53-4.33c.27-1,.6-3,1.07-6.06a47.78,47.78,0,0,1,1.53-7.06c.6-1.8,1.33-4.46,2.2-7.86s1.6-5.93,2.06-7.39a108.15,108.15,0,0,1,5.8-15.52l1.2-2.79C65.93,7.12,66.86,5.66,68,5.66c.27,0,.8.27,1.07.27a3.83,3.83,0,0,1,.66-.2c.4.13,3.33.8,2.93,1.53,0,.2-.06.33-.06.53a3,3,0,0,1,0,2.4c0,.2.06.86.06,1.06v.27a33.1,33.1,0,0,0-2.59,7.66c-.34,1.2-.4,3.93-1.14,4.66a17.41,17.41,0,0,0-2.46,5.33A17.78,17.78,0,0,1,64.4,34a17.35,17.35,0,0,1-.74,2.06,7.83,7.83,0,0,0-.6,2.6,8.37,8.37,0,0,1-.6,1.86,8.76,8.76,0,0,1-1,2.2,8.11,8.11,0,0,0-.87,2.66,13.94,13.94,0,0,1-.8,2.73,25.32,25.32,0,0,1-.53,4.07c-.33,1.73-.93,2.59-1.73,2.59-.47,0-.67-.2-.67-.6.07-.8.8-2.53.13-2.79-.13.6-.39,1.66-.86,3.19l-.93,3.6a26.48,26.48,0,0,0-.94,6.13c0,.53.14.86.4,1,.6,0,.94-.59,1.14-1.79s.46-1.93.8-2.07c.06.2.39.6.46.8a28.36,28.36,0,0,0-.8,4.33,13.33,13.33,0,0,0,.8,2.33c0,.33-.6,1.13-.6,1.4s1.27,1.06,1.27,1.8c0,.2-.14.73-.14,1,.6.93,1.67,2.73,2.33,2.73,1.14,0,3.2-2,6.26-5.93l2.47-3.66a38.3,38.3,0,0,0,2.2-3.2c.46-.8,1.53-1.33,1.86-2.06a8.13,8.13,0,0,0,.47,1.53,19,19,0,0,0-1.8,2.73,5.83,5.83,0,0,0-.87,2.13c0,.6.2.93.53.93s.47-.27.87-.86a5.41,5.41,0,0,1,1.53-1.8,5.84,5.84,0,0,0,1.6-1.8,47.69,47.69,0,0,1,3.73-5.26C81,55.74,82,53.8,82,52.81c0-.34-.66-1.14-.66-1.34s.26-.46.86-.46a5,5,0,0,1,.73.13A1,1,0,0,1,83.57,52.07Zm-29.76,10a1.91,1.91,0,0,0-.27-1,1.51,1.51,0,0,0-.73,1.07c0,.6.2.86.67.86a.31.31,0,0,0,.19-.13A4.65,4.65,0,0,0,53.81,62.06Zm.2-5.13a11.83,11.83,0,0,1-.07,1.47,4.4,4.4,0,0,0,.33-1.13,1.53,1.53,0,0,0-.13-.47Zm1.66,15.59a3.4,3.4,0,0,0-1.53-2.6,2.7,2.7,0,0,0-.2,1,2.07,2.07,0,0,0,1.73,2.33Zm-1-19v-.07c0-.07,0-.13-.06-.13s-.14.06-.14.13.07.07.07.13Zm0,15.25c0,.06.07.13.2.13s.4-.33.4-1c0-.2-.06-.53-.13-1.06A12.9,12.9,0,0,0,54.67,68.79Zm3.47-12A25.77,25.77,0,0,1,57,59.93q-.39-.41-.39-.6a8.51,8.51,0,0,1,.79-3.66A1.05,1.05,0,0,1,58.14,56.8Zm-.6-6.86a.25.25,0,0,0-.07.2c.07,0,.07,0,.13.07a.24.24,0,0,0,.07-.2c0-.07,0-.07-.07-.07ZM68,14l-.26.14.13.13Zm.07-.13a1.05,1.05,0,0,0,.46-.87A.91.91,0,0,0,68.06,13.85Zm.53-1.4v.4l.27-.26.06-.07c0-.13-.06-.2-.2-.27s0,.07-.06.07Zm1.13-4.26-.06.13h.13Zm.47,4.66v.2c.07,0,.07,0,.13-.07l-.06-.13Zm3.53,47.61c-.14,0-.2-.2-.2-.53,0-.07.06-.2.27-.4s.39,0,.39.27a1.7,1.7,0,0,1-.2.53A.43.43,0,0,1,73.72,60.46Zm1.06-1.79c-.06-.2-.26-.14.54-.74a1.54,1.54,0,0,1-.14.54Zm.6-.87v.07l-.06.06V57.8c.06,0,.06,0,.06.07Zm0,0,.34-.87,1.2-2.13c1.26-2.19,2.39-4,3.19-4a.48.48,0,0,1,.13.33v.07a7.38,7.38,0,0,1-1.93,3.33,10.35,10.35,0,0,0-1.73,2.19A2.73,2.73,0,0,1,75.38,57.8Z"/><path d="M120.73,53.4c0,.8-1.66,2.34-2.93,3.07A29.51,29.51,0,0,0,115.27,59a8.59,8.59,0,0,0-2.06,2.93,5.29,5.29,0,0,1-3.13,2.33c-.47.13-1.27.33-2.33.53l-1.8.33c-1.93-.33-3.06-.73-3.53-1.19-2.66-2.67-4-5.4-4-8.13,0-.26.07-.73.07-.93a4.19,4.19,0,0,0-.13-.6c-.33,0-.8.4-1.4,1.27-.4.53-1.47,1.86-3.26,3.92A43.49,43.49,0,0,0,90,64.39C87.7,68.92,84.31,72,81.44,72c-4.32,0-6.72-3.79-7.45-8.25,0-4.13,1.66-9.46,5.06-16,.33-.8,1.53-3.26,2.33-4.8,1.2-2.33,2.93-5.32,4.13-5.26.6,0,2.46,1.47,3.06,1.87A10.09,10.09,0,0,1,90,43.35a6,6,0,0,1-.8,2.8L88,48.61a41.74,41.74,0,0,1-3.2,5.93,21.18,21.18,0,0,0-2.33,4.72l-1,2.27a10,10,0,0,0-1.33,4.79c0,.94.14,1.4.4,1.4a5.13,5.13,0,0,0,2.2-1.33,10,10,0,0,0,2.2-2.46,13.26,13.26,0,0,1,2.53-3.27l2.13-2.19,1.8-1.8C92.63,55.34,94,53.8,95.49,52l1.27-1.6,1.66-2A22,22,0,0,0,100,46.55c1.79-2.2,3.53-4.07,4.52-4.07,1.2.34,3.47.67,3.47,2.93a22.85,22.85,0,0,1-1.67,6.13,23,23,0,0,0-1.6,7.19c0,1.47.27,2.2.87,2.2a3.49,3.49,0,0,0,1.93-1c.67-.53,1.8-1.33,3.46-2.46s2.87-2,3.67-2.67A25,25,0,0,1,119,52a4.57,4.57,0,0,1,1.4.73A.72.72,0,0,1,120.73,53.4ZM85.44,40.15c0-.13-.07-.2-.27-.26l-.13.2c-1.46,2-2.2,3.33-2.2,3.93v.4c.07-.2.54-.47.6-.67ZM89,62.26c.07.07.13,0,.13-.07Zm.53-.47a.83.83,0,0,0-.33.34A.58.58,0,0,0,89.5,61.79Zm.8-1.13a1.14,1.14,0,0,0-.73,1.07A1.4,1.4,0,0,0,90.3,60.66Zm.13-.13.2-.2Zm1.07-1.07a.85.85,0,0,0-.73.74A.8.8,0,0,0,91.5,59.46Zm.53-.53c-.07,0-.13,0-.13.07Zm1.13-1.53.2-.2Zm3.67-4.13c0-.06-.07-.13-.2-.2a7.22,7.22,0,0,0-1.8,1.8,6.88,6.88,0,0,0-1.33,2.2,39.55,39.55,0,0,0,3.33-3.73ZM100,49.34c0-.06-.07-.13-.14-.2-.33,0-.73.47-1.13,1.4.07.13.13.2.2.2.33,0,.67-.4,1-1.26Zm14.51,7.79-.13.07h.07ZM116,55.94a1.36,1.36,0,0,0-1.06.73A1.31,1.31,0,0,0,116,55.94Zm.07-.07h.07V55.8Z"/><path d="M148.17,46.08c0,1.73,0,4.59-1.2,5.79-1.66,4.46-3.59,7.39-5.79,8.86-.87.6-2.67,2-3.47,2.6a7.37,7.37,0,0,1-3.86,1.13c-4.33,0-7.46-2.6-7.46-5.73,0-1.73.4-2.6,1.27-2.6a.84.84,0,0,1,.73.74c0,.06-.06.4-.06.46,0,2.07.46,3.07,1.33,3.07a6.22,6.22,0,0,0,3.46-1.07,27.27,27.27,0,0,0,5.19-6.72,19.46,19.46,0,0,0,2.6-8.33c0-2.4-.33-3.59-1.06-3.59a1.81,1.81,0,0,0-1.14.46,36.46,36.46,0,0,0-8,8.06,30.36,30.36,0,0,1-1.79,2.53,51.83,51.83,0,0,0-3.4,4.59l-2.66,3.87c-.54.86-1.94,2.93-2.54,4a38.1,38.1,0,0,0-2.13,4.2q-.8,4.59-2,4.59c-2.07,0-4.53-1.46-4.86-3.39a8.92,8.92,0,0,1,.13-1.67,125,125,0,0,1,5-16.05l2.2-6.12c1.13-3.13,2-5.6,2.53-7.33,1.13-2.73,2.6-6.59,4.46-11.72s3.13-8.59,3.86-10.45l1.8-5.26c.93-2.4,2.4-5.33,3.93-5.06a2.24,2.24,0,0,1,1.07.53,8.07,8.07,0,0,1,1.73,3.73,10.35,10.35,0,0,1-.6,2.86,18,18,0,0,0-.73,2.53,14.84,14.84,0,0,1-.94,3.4c-.6,1.66-1,2.73-1.06,3.13-.33,1.13-.87,2.66-1.6,4.59s-1.2,3.2-1.4,3.93-.8,2.33-1.6,4.46-1.33,3.8-1.66,4.93a22.58,22.58,0,0,1-.93,2.73,12.51,12.51,0,0,0-.87,3.13c0,.47.13.67.33.67s1.34-.94,3.13-2.73l1.07-1.14c1.27-1.33,1.66-1.79,2.93-2.93,1.8-1.53,3.46-2.59,5.33-2.59a17,17,0,0,1,2.06.4c1.07.33,2.86,2,3.6,2.33a4.38,4.38,0,0,1,2.06,2.33,6.13,6.13,0,0,1,.53,1.46c.07.27.4,1.33.4,1.53ZM123.6,57.73a2.06,2.06,0,0,0,.4-.86A1.51,1.51,0,0,0,123.6,57.73Zm15.31-17.91a.31.31,0,0,0-.33-.33,5.52,5.52,0,0,0-2.8,1.46l-1.79.8c-1.67,1-2.67,2.07-2.87,3.2-1.73,1.06-1.53,2.86-2.33,3.93l-2.73,3.33A8.87,8.87,0,0,0,124,56.8a1.84,1.84,0,0,0,.86-.73c1.27-1.87,3.2-4.4,5.86-7.59s4.07-4.86,4.13-5,4.2-2.86,4-3.59Zm-8.25,6.53a3.23,3.23,0,0,1,.53-.47,3.23,3.23,0,0,1-.47.53Zm.53-1.34c-.07,0-.07,0-.07-.06Zm0,.87c0-.4-.2-.87.4-.87A2.1,2.1,0,0,1,131.19,45.88Zm.47-.87h-.07c0-.06.07-.06.13-.06S131.66,45,131.66,45Zm.06-.06a3.28,3.28,0,0,1,.8-.87A1.18,1.18,0,0,1,131.72,45Zm.87-.87c-.07,0-.07,0-.07-.06Zm.26,18.11c.87-.46,2.27-1.46,2.27-2.19,0-.2-.07-.27-.27-.27a11.52,11.52,0,0,0-1.73,1.47c-.73.73-.6,1.06-.33,1.06Zm5.86-2.39-.26-.27a7.74,7.74,0,0,0-2.53,2.2c-.2.33-1.2.8-1.4,1.26-.07.2.07.34.4.34.93,0,1.86-.67,2.86-1.93A3.24,3.24,0,0,0,138.71,59.8Z"/><path d="M203,53.94a2.5,2.5,0,0,1-.53,1.4c-.73.86-2.46,2.33-2.8,2.79-1.4,1.53-5.92,3.73-5.59,4.66,0,1.34-1.2,2.2-2.8,2.2A11.39,11.39,0,0,1,186,64l-2.4-1.26-1.33-1.13c-.2-.27-1.07-1.07-1.33-1.4a7.33,7.33,0,0,1-1.4-4.26v-4.2c.06-1.93.06-3.33.06-4.26a12.21,12.21,0,0,0,.54-3.93c0-.6.4-1.53.4-2a6.49,6.49,0,0,0-.4-1.66l-.2-.67a.78.78,0,0,0-.47-.13l-.4.2-4.46,4.39a17.31,17.31,0,0,1-1.47,2,14.41,14.41,0,0,0-2.66,3c-.73,1.06-1.8,2.53-3.33,4.46L164,57.4l-1,1.47a23.61,23.61,0,0,0-1.74,2.59,25.45,25.45,0,0,1-1.39,2.4c-.54.66-1.67,1.66-1.8,2.66-.33.47-.8,1.4-1.53,2.67a16.06,16.06,0,0,1-1.8,2.86l-1.2,1.66a6.68,6.68,0,0,1-1.13,1.54L150.9,77c-.33.6-1,2.73-2.26,2.39a1.74,1.74,0,0,1-1.4-.59c-.2-.2-2.13-1.74-2.13-2.14a4.09,4.09,0,0,1,.27-1.73c.46-1,.66-3.33,1-4.06a37.68,37.68,0,0,0,2.46-8.26c.33-1.79.93-4,1.73-6.72s1.33-4.33,1.4-4.73c.66-2.6,1.46-5.39,2.4-8.32s2.06-6.2,3.33-9.86l2.79-8.19c.8-2.6,1.33-4.33,1.67-5.19l1.66-5c.73-2.06,1.53-4.26,2.4-6.46A33.28,33.28,0,0,1,168,3.46l1.4-2.39c.27-.07.86-.4,1.06-.47s.87.4,1.47,1.2a4.5,4.5,0,0,0,1.46,1.4A3.28,3.28,0,0,1,174.08,5a1.61,1.61,0,0,1-.4,1.14l-.67.66a1.31,1.31,0,0,0-.4.93c0,.2,0,.4.07.47l.26.47c0,.06.07.33.07.4,0,.46-1.26,1.19-1.26,1.39s.86.87.86,1.2a6,6,0,0,1-.73,1.93l-.8,1.74-.8,2.33L169.75,20c-.27.94-1.07,3.2-2.33,6.73a53.69,53.69,0,0,0-2.33,7.92l-.2.74a76.9,76.9,0,0,1-4.66,11.78c-.4.53-1.47,1.6-1.47,1.73s.33.94.33,1.27a.72.72,0,0,1-.46.73,15.19,15.19,0,0,1-1,4.4,15.2,15.2,0,0,0-1,4.06,2.69,2.69,0,0,0,1.4-1.33,9.44,9.44,0,0,1,2.2-2.07c1.26-1,1.86-1.8,1.86-2.4a7,7,0,0,1,1.27-3.33c.86-1.39,1.66-2.19,2.26-2.26v.4c.07.2.2.33.33.33l.6-.6c.87-.86,1.93-2.13,1.93-2.86l-.13-.13c-.2,0-.87.73-1.2.8,0-.87,1.67-3.27,2.8-4.53l2.79-2.86c1.8-1.87,4.53-3.67,6.13-3.67.6,0,1.87,1.07,3.2,1.07.46,0,1.4-.27,1.73-.27.66,0,1.86,2.33,2.93,3.06l.33.34c.67.8,1,1.33,1,1.66a8.49,8.49,0,0,0-1.06,3.8c0,.53.06,1.6.06,1.93a3.45,3.45,0,0,1-.33,1.66l-.2.74a13.54,13.54,0,0,0-.4,3.06c0,.53.4,2.06.4,2.26s-.27.94-.27,1.2.2.8.2,1.07a7.33,7.33,0,0,0-.13.73,5.36,5.36,0,0,0,.6,1.93c.46.87.73,1.27.86,1.27a6.18,6.18,0,0,0,3.07-1.14l4.33-2.86,1.53-1.46c1-1,1.73-1.47,2.33-1.47,0,.47-.47,1.13-1.47,2s-1.46,1.4-1.46,1.53l.06.13.6,1.07a.38.38,0,0,0,.34.2c.06,0,.06-.07.13-.07a16.21,16.21,0,0,0,5.06-3.86A1.85,1.85,0,0,1,203,53.94ZM147.91,71.25A.56.56,0,0,0,148,71a.5.5,0,0,1-.27.14ZM151,61.93a1,1,0,0,0,.06-.47c0-.46-.06-.73-.26-.73s-.54.6-1,1.86a8,8,0,0,0-.67,2.6,12.57,12.57,0,0,1-.53,2.73,13.15,13.15,0,0,0-.53,3,3.35,3.35,0,0,0,.93-2.13c.07-1,1.13-3.27,1.13-4.33Zm1.53-5.6A11.62,11.62,0,0,0,153.1,53c-1-.27-1.13,3.32-1.4,3.72l-.46,1.14c0,.33.13.46.4.46a.46.46,0,0,0,.26-.13Zm.53-3.39a.72.72,0,0,0,.47-.73.93.93,0,0,0-.14-.47C153,51.74,153.1,52.54,153.1,52.94Zm25.77-15v-.2c-.07-.07-.13-.13-.2-.13a4.24,4.24,0,0,0-1.93,1.06l-3.4,3.26a2.15,2.15,0,0,0-1.13,1c-.4.6-.66.87-.8.87a3.76,3.76,0,0,0-1.26,1.4,3.26,3.26,0,0,1-1.33,1.46,10.53,10.53,0,0,1-1.27,1.73c-.87,1.07-1.4,1.6-1.6,1.6-1.13,0-.66,2.07-2.2,3.6a14.18,14.18,0,0,0-1.66,2.2c-.67,1.13-2.4,2.73-2.53,3.59l-.33.67c-.27.53-1.67,1.93-2,2.73-1.53,3.06-2.4,4.66-2.66,4.73l-.8,1a4.71,4.71,0,0,0-.6,1.07.92.92,0,0,0,.73.73c.33-.06,1.4-1.53,3.13-4.46.73-1.13,1.86-2.8,3.4-4.86s2.66-3.8,3.39-4.93,1.73-2.53,3.26-4.46A43.2,43.2,0,0,0,170.41,47c1.2-1.8,3.93-4.73,8.13-8.66Zm-24.7,11c0,.2.06.33.2.33s.13-.07.2-.27v-.46a.76.76,0,0,1-.34.26C154.23,48.81,154.17,48.81,154.17,48.88Zm.46-.87v.4a.49.49,0,0,0,.4-.47c0-.13-.07-.2-.13-.2S154.7,47.81,154.63,48Zm.93,11a3.11,3.11,0,0,0-.93,1.86c0,.47.07.74.27.87a3.92,3.92,0,0,1,.4-1.13A3,3,0,0,0,155.56,59Zm0-14a1.58,1.58,0,0,0-.73,1.27c0,.2.34.47.4.47s.33-.14.33-.4Zm.07-.06c.33-.07.47-.34.47-.93C155.76,44.08,155.63,44.42,155.63,45Zm.2,13.65-.2.27c.07,0,.13-.07.33-.14Zm.33-15.12v.4l.27-.2c.07-.06.07-.13.07-.26a.23.23,0,0,0-.07-.2C156.23,43.22,156.16,43.28,156.16,43.48Zm.14,16.18.13.14c0-.07.07-.14.13-.34Zm.4-19c0,.07-.07.2-.07.27a1.19,1.19,0,0,0,.2.8c.2,0,.27-.2.27-.67v-.4l-.2-.4Zm1.06,10.65c-.06.07-.06.07-.06.14s.06.26.2.26.13-.06.19-.26V51Zm.53-14.45a3.19,3.19,0,0,0,.74-1.59A.39.39,0,0,0,159,35v-.2c-.2,0-.47.47-.8,1.33A7.3,7.3,0,0,0,158.29,36.82Zm.27,14.12c0-.4-.2-.53-.2-.8l-.2.4v.4Zm1.67-20.71c-.07.07-.07.13-.07.27l.13.2c.14,0,.2-.07.27-.27V30Zm.39-1.2v.87c.54-.07.47-1.13.27-1.13S160.69,28.83,160.62,29Zm.8-2.33-.13-.06.07.2Zm.94,5.4-.07.13h.13Zm3.19,15.84c.07,0,.07,0,.07.07v-.07Zm.07,0a.56.56,0,0,1,.47-.46A.56.56,0,0,1,165.62,47.94Zm.47-.46c0-.07,0-.07.06-.07Zm.06-.07a1,1,0,0,1,.47-.93C166.62,47,166.49,47.35,166.15,47.41Zm.47-1v.07c-.07,0-.07,0-.07-.07Zm0,0a.48.48,0,0,1,.46-.4A.66.66,0,0,1,166.62,46.41Zm.53-.46-.07.06V46Zm3.26-37.29-.13.13h.13Zm0,33.89a.26.26,0,0,0-.06.2c.13,0,.2-.07.2-.27Zm.27-.13A.68.68,0,0,0,171,42C170.81,42.08,170.75,42.22,170.68,42.42Zm.47-.54a.58.58,0,0,0,.4-.39A.58.58,0,0,0,171.15,41.88Zm.53-.46A.68.68,0,0,0,172,41C171.81,41.09,171.75,41.22,171.68,41.42Zm.47-.53a.6.6,0,0,0,.39-.4A.56.56,0,0,0,172.15,40.89Zm.46-.47c.07,0,.13-.07.27-.2C172.74,40.22,172.68,40.29,172.61,40.42Zm11,8.06c0-.27-.07-.8-.07-1.07l-.2-.2a2.2,2.2,0,0,0-.2,1.07c0,.86.07,1.4.2,1.46s.14-.13.14-.2A10.58,10.58,0,0,0,183.6,48.48Zm2.13-3.33c0-.2.27-.54.27-.73a1.2,1.2,0,0,0-.74-1.2,34.09,34.09,0,0,0-.66,4.13c0,.73-.54,2.26-.54,2.86a2.78,2.78,0,0,0,.2,1,1.71,1.71,0,0,0,.67-1.2,44.16,44.16,0,0,0,.67-4.4Zm13.32,8.32c0-.07,0-.07.06-.07Zm.93-.26a1.28,1.28,0,0,1-.87.19c0-.26.34-.73,1.07-1.39s1.13-1,1.33-1,.4.06.4.26-.07.14-.13.2Zm2.66-3.2c0-.27,1.27-1.07,1.74-1.27l.13.14v.26c-.54.8-1,1.2-1.4,1.2a.24.24,0,0,1-.2-.07C202.71,50.21,202.64,50.08,202.64,50Zm.47,3.93h0Zm.4-.47a.59.59,0,0,1-.4.47A.73.73,0,0,1,203.51,53.47Zm.07,0V53.4c0,.07,0,.07-.07.07ZM205,51.21a2.52,2.52,0,0,1-1.07,2l-.39.19c.39-1.66.8-2.59,1.26-2.73C205,50.67,205,50.87,205,51.21Zm-1.46,2.19v0Z"/><path d="M207.31,40.49a7,7,0,0,1,4.33-1.6c2.06.26,2,.46,3,2.53a4.09,4.09,0,0,0,1.14,1.26c.46.27,1.33.87,1.39.87,1.4,1.2,2.07,3.13,2.07,5.73.2,3.66-1.87,7.39-2.2,8.52a10.82,10.82,0,0,1-1.2,2.26,19.74,19.74,0,0,0-1.26,2.13c-1.87,2.67-3.4,4.07-6.33,4.07A6.87,6.87,0,0,1,204.31,65a11.68,11.68,0,0,1-4-3.79,10.74,10.74,0,0,1-1.47-4.93C198.85,49.94,202.25,44.28,207.31,40.49Zm5.66,4c-.73,0-2.13,1-4.06,2.93-.2.27-1.4,1.53-1.74,2.07a31.34,31.34,0,0,0-3.46,7.32,12.59,12.59,0,0,0-.2,2.2c0,1.4.47,3.73,1.73,3.73a10,10,0,0,0,7.13-5.13A16.72,16.72,0,0,0,215,48.94C215.1,46.81,215,45.15,213,44.48ZM217.5,55.2a9.4,9.4,0,0,0,1-4.26c0-1.06-.34-2.73-.8-2.73-.54-.27-1.14,3.8-1.53,4.73A14.93,14.93,0,0,0,215,56.2c0,.33.14.53.47.53.07,0,.4-.2.67-.26C216.5,56.13,217,56.33,217.5,55.2Zm.13-8.72c-.07,0-.13.07-.13.27s.06.13.2.2.13-.07.2-.2S217.83,46.48,217.63,46.48Z"/><path d="M264.18,53.4c0,.8-1.67,2.34-2.93,3.07A26.75,26.75,0,0,0,258.72,59a8.66,8.66,0,0,0-2.07,2.93c-.46,1.13-2.06,2-3.13,2.33-.46.13-1.26.33-2.33.53l-1.8.33c-1.93-.33-3.06-.73-3.52-1.19-2.67-2.67-4-5.4-4-8.13,0-.26.07-.73.07-.93a3.37,3.37,0,0,0-.14-.6c-.33,0-.8.4-1.4,1.27-.4.53-1.46,1.86-3.26,3.92a43.15,43.15,0,0,0-3.66,4.93c-2.33,4.53-5.73,7.59-8.59,7.59-4.33,0-6.73-3.79-7.46-8.25,0-4.13,1.67-9.46,5.06-16,.34-.8,1.53-3.26,2.33-4.8,1.2-2.33,2.93-5.32,4.13-5.26.6,0,2.47,1.47,3.06,1.87a9.92,9.92,0,0,1,1.4,3.86,5.91,5.91,0,0,1-.8,2.8l-1.19,2.46a43.87,43.87,0,0,1-3.2,5.93,20.35,20.35,0,0,0-2.33,4.72l-1,2.27a9.88,9.88,0,0,0-1.33,4.79c0,.94.13,1.4.4,1.4a5.06,5.06,0,0,0,2.19-1.33,9.81,9.81,0,0,0,2.2-2.46,13.51,13.51,0,0,1,2.53-3.27L233,58.47l1.8-1.8c1.27-1.33,2.66-2.87,4.13-4.66l1.27-1.6,1.66-2a23.05,23.05,0,0,0,1.53-1.86c1.8-2.2,3.53-4.07,4.53-4.07,1.2.34,3.46.67,3.46,2.93a22.69,22.69,0,0,1-1.66,6.13,22.76,22.76,0,0,0-1.6,7.19c0,1.47.27,2.2.87,2.2a3.52,3.52,0,0,0,1.93-1c.66-.53,1.79-1.33,3.46-2.46s2.86-2,3.66-2.67a25.12,25.12,0,0,1,4.4-2.79,4.44,4.44,0,0,1,1.39.73A.73.73,0,0,1,264.18,53.4Zm-35.3-13.25c0-.13-.06-.2-.26-.26l-.13.2c-1.47,2-2.2,3.33-2.2,3.93v.4c.06-.2.53-.47.6-.67Zm3.53,22.11c.07.07.14,0,.14-.07Zm.54-.47a.8.8,0,0,0-.34.34A.57.57,0,0,0,233,61.79Zm.8-1.13a1.15,1.15,0,0,0-.74,1.07A1.41,1.41,0,0,0,233.75,60.66Zm.13-.13.2-.2Zm1.06-1.07a.86.86,0,0,0-.73.74A.79.79,0,0,0,234.94,59.46Zm.54-.53c-.07,0-.14,0-.14.07Zm1.13-1.53.2-.2Zm3.66-4.13c0-.06-.06-.13-.2-.2a7.22,7.22,0,0,0-1.8,1.8,7.08,7.08,0,0,0-1.33,2.2,38.19,38.19,0,0,0,3.33-3.73Zm3.13-3.93c0-.06-.07-.13-.13-.2-.33,0-.73.47-1.13,1.4.06.13.13.2.2.2.33,0,.66-.4,1-1.26Zm14.52,7.79-.14.07h.07Zm1.53-1.19c-.4,0-.73.26-1.07.73A1.31,1.31,0,0,0,259.45,55.94Zm.07-.07h.06V55.8Z"/><path d="M291.08,51.21c0,.26-2,.86-2.79,1.53a15.55,15.55,0,0,1-2.87,1.66,8.23,8.23,0,0,1-3,1.07c-.14.4-.54.66-1.2.73a1.24,1.24,0,0,1,.2-.46,1.4,1.4,0,0,0-1.2.73h.46c-.26.6-1.53,1.53-3.86,2.73a27.66,27.66,0,0,0-2.53,1.33c-1.26.73-1.93,1.26-2.13,1.73.2.33.87,1.87,1.2,2.47l-.2.73a9.8,9.8,0,0,1,.53,2.86,28,28,0,0,1-1.06,6.26c-.67,2.53-2.4,4.86-5.2,7.06-1.73,1.4-2.93,2.33-3.66,2.86s-1.86,1.27-3.4,2.27a15.38,15.38,0,0,1-8.59,2.66c-3.46,0-6.65-2.13-6.65-5.33a5,5,0,0,1,.93-2.66c2.39-3.4,3.86-5.13,4.39-5.13.2,0,.27.07.27.27l-.27.33c-.86.87-2.66,3.06-2.66,3.93-.07,1.2,1.4-1.13,2-1.93A38,38,0,0,0,252.53,76a24.26,24.26,0,0,1,3.13-3.06l2.53-2.2a58.35,58.35,0,0,1,5.66-4.46,19.91,19.91,0,0,0,2.33-1.74c1.26-1,1.93-1.73,1.93-2.06,0-.53-.47-.8-.47-1l.07-.13a.24.24,0,0,0,.07-.2,5.66,5.66,0,0,0-.27-.8,68.38,68.38,0,0,0-6.93-9.46l-.66-.93a12.54,12.54,0,0,1-1.67-5.06,2.82,2.82,0,0,1,.07-.86c1.13-5.07,4.86-7.73,11.25-8,1,.6,3.53.67,4.13,3.2-.13.67-1.66.8-2.46,1.2-4.06,2.06-6.73,4.26-6.73,8.32a5.08,5.08,0,0,0,.8,2.4c2.47,5,4.2,7.66,5.06,8.12A17,17,0,0,1,273.1,58c-.33.6-1.86,1.4-2.19,1.86,0,.34.13.54.4.54l.06-.07q9.58-5.79,12.39-7.19c2.86-1.4,4.33-2.27,4.39-2.6a.9.9,0,0,0-.8-.33c-.53,0-2.39,1.26-2.93,1.26h-.06c-.07-.06-.07-.06-.14-.06a7.06,7.06,0,0,1,1.93-1.14,8.88,8.88,0,0,0,2.2-1.26,7.31,7.31,0,0,1,1.27.67,5.81,5.81,0,0,1,1.26.73.57.57,0,0,1-.2.4Zm-23.3,14.85v-.34a8.4,8.4,0,0,0-2.07,1.6,53.89,53.89,0,0,0-5.46,4.06,34.69,34.69,0,0,0-6.06,5.8c-.33.53-1.26,1.6-2.66,3.26a14.64,14.64,0,0,0-2.86,4.46,2,2,0,0,0,.86.33q6.89,0,14.65-9.78a14.16,14.16,0,0,0,1.6-2.53c.93-1.27,1.46-4.6,1.86-6A5.18,5.18,0,0,0,267.78,66.06ZM251,75.85c0-.2.26-.4.73-.74a.92.92,0,0,1-.6.87Zm.73-.74.26-.26Zm.26-.26c.47-.6,1.8-2.07,2-2.33,0,0,2.73-2.67,3.6-2.8a.26.26,0,0,1,.06.2l-.26.33a11.07,11.07,0,0,0-1.33,1.2C255.32,72.05,252.46,75.18,252,74.85Zm5.33,8.72c.2,0,.27-.07.27-.27a.36.36,0,0,0-.4.27Zm1.73-15v-.07c0,.07,0,.07-.06.13S259,68.59,259.05,68.59Zm.14-.2-.14.13Zm0,0,.13-.14Zm.8-.47c-.07-.07-.14-.07-.14-.13,0-.33.2-.47.67-.47A.79.79,0,0,1,260,67.92Zm.53-.6h0Zm3.26-2.26a6.21,6.21,0,0,1-3.2,2.26,7.53,7.53,0,0,1,1.74-1.86,13.52,13.52,0,0,1,2.73-1.93.25.25,0,0,1,.06.2ZM264.45,81h-.14a.48.48,0,0,0-.46.4A.54.54,0,0,0,264.45,81Zm2.33-18.71c-.07.33-.4.67-1,1C266.11,62.53,266,62.53,266.78,62.26Zm0,0c.06,0,.06,0,.13-.07S266.84,62.26,266.78,62.26Zm2.79,14.12-.13.13a.24.24,0,0,0,.07.2A.54.54,0,0,0,269.57,76.38Zm.27-.47c-.13.07-.2.2-.2.47A.54.54,0,0,0,269.84,75.91Zm.27-.26c-.14,0-.2.06-.2.2Zm.13-.2a.23.23,0,0,0-.07-.2c0,.2,0,.26-.06.33ZM272.3,61.4a.54.54,0,0,0,.34-.4c-.34.13-.47.2-.47.26Zm.8-3.4h0Zm.07,0c.07-.2.2-.27.47-.27A.52.52,0,0,1,273.17,58Zm.47-.27a.63.63,0,0,1,.53-.4A.59.59,0,0,1,273.64,57.73Zm2.19-1.46a.15.15,0,0,0,.14-.14Zm1.2-.67c-.07-.06-.07-.06-.07-.13a.18.18,0,0,1,.21-.2c.06,0,.06,0,.13.07A.49.49,0,0,1,277,55.6Zm2.67,1.27c.06,0,.13-.07.2-.14a.5.5,0,0,1-.34.07Zm1.46-.67c-.07.2-.2.27-.47.27A1,1,0,0,1,281.16,56.2Zm3.06-4.73A20.35,20.35,0,0,1,281,53.4c-.14,0-.2-.06-.2-.13s0-.06.06-.13C281.69,52.74,283.42,51.47,284.22,51.47Zm-3,4.73h0Zm3.39-2.26c-.06-.07-.13-.14-.2-.14a5.72,5.72,0,0,0-2.33,1.6c.2,0,.27,0,.34.07.19-.2,1.19-.73,1.53-1.07S284.62,54,284.62,53.94Zm-.4-2.53v0Zm2.93,1.13a2.35,2.35,0,0,0-1.33.93A5.12,5.12,0,0,0,287.15,52.54Zm2.2-1.2-.13-.07c-.07,0-.14.07-.2.14A.48.48,0,0,0,289.35,51.34Z"/><path d="M316.12,52.67a1.83,1.83,0,0,1,.27.87,2,2,0,0,1-.34.93l-.19.27a18.42,18.42,0,0,0-1.54,1.73l-.73.8a18,18,0,0,0-1.73,2.06,10.17,10.17,0,0,1-3.33,2.86c-3.26,1.8-4.93,4.2-7.32,3.87-.4,0-1.74-.27-4.07-.74a.54.54,0,0,1-.26-.06c-3.2-.87-5.4-2.4-6.66-4.53l-.4-.6-.47-.8c-.53-.86-.53-1.06-1-1.86a10.77,10.77,0,0,1-1.19-5.06,10.52,10.52,0,0,1,.53-3.67c0-.6,1.2-2.86,2.86-5.46s4.86-4.86,7.86-4.86h1.46a10.06,10.06,0,0,1,3.33,1.27,9.38,9.38,0,0,1,3.13,2.39l.4.47a11,11,0,0,1,1.27,3,11.11,11.11,0,0,1-1,4.13,4.83,4.83,0,0,1-2.93,3l-.67.34a7.73,7.73,0,0,1-2.93.33h-.8c-1.13,0-2.33-.73-3.53-2.13l-.53-.6c-.66-.47-1-1.87-1.4-1.87h-.13l-.66.4c-1.87.67-3.07,2.87-3.53,6.6,0,1.93.46,2.66,1.86,4L293.08,61c.6.6,2.13.86,4.46.86s5.06-1.13,8.33-3.33l3.86-2.66a18.94,18.94,0,0,0,2.6-2.07,16.51,16.51,0,0,1,2.73-2.06.76.76,0,0,1,.53.2l.2.33h-.07a1.15,1.15,0,0,1,.27.27ZM289,49.08a3,3,0,0,0,.27,1.53c.33,0,1.39-3,2.06-3.8l.33-.2A4.06,4.06,0,0,1,293,45.28l1.86-1.6v-.2c0-.13-.06-.2-.26-.2h-.2l-.47.27-2.06,1.6a10.68,10.68,0,0,0-2.73,3.59Zm.13,5.66h.07c.13,0,.2-.14.2-.47,0-.53-.4-.53-.4.07Zm.8-2.53a2.39,2.39,0,0,1,.47-1.07c.6-1.13.53-1.4.33-1.46-.67,0-1.06.79-1.26,2.33,0,.13.06.2.26.2Zm1.4,3.33h.07c.06,0,.13.06.13.2v.39c0,.34-.07.47-.2.54a.24.24,0,0,0-.2-.07ZM296,46.41a1.78,1.78,0,0,0-.33.94q0,1.59,2.4,1.59c.33,0,1.59-.33,2.13-.33s1.13-.47,2-1.4a4.15,4.15,0,0,0,1.4-2.6c0-1.13-.73-1.06-1.46-1.06A8.62,8.62,0,0,0,296.41,46Zm7.86,2.8.07-.07V49c0-.2-.07-.27-.27-.27l-.53.47c-.6.73-1.47,1.66-1.47,1.73v.2a.64.64,0,0,0,.47.13Zm11.32,5.13c0-.07-.6-.34-.6-.8v-.2c-.07-.07-.07-.07-.13-.07a4.52,4.52,0,0,0-2.2,1.87l-.27.53a1.3,1.3,0,0,0-.66.2l-1.13.73a.59.59,0,0,0-.2.47.3.3,0,0,0,.33.2,4.36,4.36,0,0,0,2.86-.67l1.53-1.6a.66.66,0,0,0,.34-.4A.53.53,0,0,0,315.19,54.34Zm-3.26,1.86.13-.53c.27,0,.4.13.4.46s-.13.27-.4.27C312,56.33,311.93,56.27,311.93,56.2Zm.06-.53h0Z"/></g></g></svg>