<?xml version="1.0" encoding="utf-8"?>
<!-- Generator: Adobe Illustrator 22.1.0, SVG Export Plug-In . SVG Version: 6.00 Build 0)  -->
<svg version="1.1" id="Layer_1" xmlns="http://www.w3.org/2000/svg" xmlns:xlink="http://www.w3.org/1999/xlink" x="0px" y="0px"
	 viewBox="0 0 30 36" style="enable-background:new 0 0 30 36;" xml:space="preserve">
<style type="text/css">
	.st0{fill:#111110;}
</style>
<path class="st0" d="M14.1,35.7c0-0.1,0-0.1-0.1-0.1c-3.4-1.1-5.2-5.7-5.2-17.7v-1.1C8.8,11.5,9,3.5,14,1c0.1,0,0.1-0.1,0.1-0.1V0.6
	c0-0.1-0.1-0.2-0.2-0.2C4.6,2.1,0.3,10.3,0.3,18.1C0.3,27.6,6,35,14,36C14.1,36,14.2,35.9,14.1,35.7L14.1,35.7L14.1,35.7z M29.7,7.4
	c0-0.6-0.2-1.3-0.5-1.9l0,0l-0.1-0.2c-0.2-0.5-0.6-0.9-0.9-1.4C27.6,3.2,26.8,2.6,26,2c-2.1-1.3-4.6-1.9-7.5-2
	c-0.1,0-0.2,0.1-0.2,0.2l0,0c0,0.1,0.1,0.2,0.2,0.2c3.5,0.2,5.8,1.3,7.2,2.2c0.1,0.1,0.3,0.2,0.5,0.3c0.3,0.3,0.6,0.6,0.5,0.6
	c0,0-0.1,0-0.3,0c-0.3-0.1-0.6-0.1-0.9-0.1c-0.6,0-1.1,0.1-1.6,0.3s-1,0.5-1.3,0.9c-0.5,0.4-0.8,0.9-1,1.4c-0.2,0.5-0.3,1.1-0.3,1.6
	c0,0.6,0.1,1.1,0.3,1.6c0.2,0.5,0.5,1,0.9,1.3c0.4,0.4,0.8,0.7,1.3,0.9s1.1,0.3,1.6,0.3c0.6,0,1.1-0.1,1.6-0.3s1-0.5,1.3-0.9
	s0.7-0.8,0.9-1.3c0.1-0.3,0.2-0.6,0.3-0.9c0-0.1,0-0.2,0.1-0.5c0-0.1,0-0.1,0-0.2C29.7,7.6,29.7,7.5,29.7,7.4 M18.3,35.8L18.3,35.8
	c0-0.2,0-0.2,0.1-0.2c2-0.9,3-3,3-6.6v-6l0,0v-4.4l0,0c0-0.3,0.2-0.6,0.6-0.6h6.9c0.3,0,0.6,0.2,0.6,0.6l0,0V23v12.2l0,0v0.5
	c0,0.1-0.1,0.2-0.2,0.2h-0.2c-0.1,0-0.1-0.1-0.2-0.1c-0.1-1.2-0.8-3-3.2-3c-2.6,0-3.6,1.6-5.8,2.6c-0.4,0.2-0.9,0.3-1.4,0.5h-0.1
	C18.3,35.9,18.3,35.8,18.3,35.8L18.3,35.8L18.3,35.8z"/>
</svg>
