<svg class="gj-icon" xmlns="http://www.w3.org/2000/svg" x="0px" y="0px" viewBox="0 0 16 19.8">
<style type="text/css">
	.gj-icon__letter{fill:#000105;}
</style>
<path class="gj-icon__letter" d="M11.6,9.9L11.6,9.9L11.6,9.9v5.9c0,2.5-0.9,3.7-2.6,3.9v0.1c0.3,0,0.6-0.1,0.9-0.1c0,0,0,0,0,0
	c0.4-0.1,0.7-0.2,0.9-0.3c1.2-0.5,1.8-1.4,3.2-1.4c1.3,0,1.9,1.1,2,1.7H16v-0.4v0V9.9H11.6 M16,4c0-0.4-0.1-0.7-0.3-1.1l0,0l0,0
	c-0.1-0.3-0.3-0.5-0.5-0.7c-0.3-0.4-0.7-0.7-1.2-1C12.8,0.4,11.2,0,9.5,0C9.3,0,9.2,0,9,0h0v0.1l0,0c0.2,0,0.3,0,0.5,0
	c2.2,0,3.6,0.6,4.5,1.2c0.1,0.1,0.2,0.1,0.3,0.2c0.3,0.3,0.3,0.5,0.3,0.5c0,0.1-0.2,0.1-0.3,0h0c-0.1,0-0.3,0-0.4,0
	c-0.3,0-0.6,0.1-0.9,0.2s-0.5,0.3-0.7,0.5s-0.4,0.4-0.5,0.7c-0.1,0.3-0.2,0.6-0.2,0.9c0,0.3,0.1,0.6,0.2,0.9
	c0.1,0.3,0.3,0.5,0.5,0.7c0.2,0.2,0.4,0.4,0.7,0.5c0.3,0.1,0.6,0.2,0.9,0.2c0.3,0,0.6-0.1,0.9-0.2c0.3-0.1,0.5-0.3,0.7-0.5
	c0.2-0.2,0.4-0.4,0.5-0.7c0.1-0.2,0.1-0.3,0.1-0.5c0,0,0-0.1,0-0.2c0,0,0-0.1,0-0.1C16,4.1,16,4.1,16,4 M4.7,9.9V9.2
	c0-3.1,0.1-8,3.5-8.9V0.1C2.6,0.7,0,5.4,0,9.9c0,5.5,3.5,9.7,8.2,9.9v-0.1C5.9,19.5,4.7,17.2,4.7,9.9"/>
</svg>
