<svg class="o-icon" xmlns="http://www.w3.org/2000/svg" viewBox="0 0 11 14.03">
  <g class="c-padlock">
    <path class="c-padlock__base" d="M11,8.81a1.37,1.37,0,0,0-.26-.87,1.39,1.39,0,0,0-.33-.31,1.42,1.42,0,0,0-.8-.23H1.41a2,2,0,0,0-.38,0,1.27,1.27,0,0,0-.62.33l-.09.09a1.24,1.24,0,0,0-.26.45A1.21,1.21,0,0,0,0,8.77q0,.73,0,1.45,0,2.22,0,4.43a1.16,1.16,0,0,0,.11.53,1.47,1.47,0,0,0,.23.36,1.42,1.42,0,0,0,.32.26A1.43,1.43,0,0,0,1.4,16H9.59a1.54,1.54,0,0,0,.47-.07,1.34,1.34,0,0,0,.73-.54,1.29,1.29,0,0,0,.21-.68s0,0,0-.07Q11,11.73,11,8.81Zm-4.82,3.3.11.53.09.43.09.45c0,.05,0,.06,0,.06H4.58c-.07,0-.07,0-.05-.07l.21-1,.14-.64,0-.15a.07.07,0,0,0,0-.08,1.07,1.07,0,0,1-.33-.35A.85.85,0,0,1,4.44,11a1,1,0,0,1,.06-.61.9.9,0,0,1,.26-.34,1.11,1.11,0,0,1,.36-.19,1.24,1.24,0,0,1,.63,0,1.08,1.08,0,0,1,.58.31.92.92,0,0,1,.18.31,1,1,0,0,1,.06.47.83.83,0,0,1-.27.55l-.17.15a.08.08,0,0,0,0,.06C6.13,11.84,6.15,12,6.18,12.11Z" transform="translate(0 -1.97)"/>
    <path class="c-padlock__lock" d="M2.88,6.89c.06,0,.06,0,.06-.07q0-1.55,0-3.1a.61.61,0,0,1,.21-.47.63.63,0,0,1,.43-.15H7.38a.85.85,0,0,1,.26,0,.55.55,0,0,1,.4.46,1,1,0,0,1,0,.15Q8,5.29,8,6.83s0,.06,0,.06H9.18s0,0,0,0q0-1.57,0-3.14a1.74,1.74,0,0,0,0-.3A1.58,1.58,0,0,0,9,2.79a1.83,1.83,0,0,0-.33-.38,1.77,1.77,0,0,0-.57-.33A2,2,0,0,0,7.38,2H3.68L3.34,2a1.65,1.65,0,0,0-.6.18,1.83,1.83,0,0,0-.62.51,1.85,1.85,0,0,0-.27.51,1.5,1.5,0,0,0-.08.53q0,1.56,0,3.11s0,.06.06.06Z" transform="translate(0 -1.97)"/>
  </g>
</svg>

