<svg xmlns="http://www.w3.org/2000/svg" viewBox="0 0 890.6 104" class="o-svg" preserveAspectRatio="xMinYMid meet"><path d="M178.7 46.6c-33.5 0-58 22.2-58 52.3 0 1.3 0 2.6.1 3.9H139c-.1-1.3-.2-2.6-.2-3.9 0-21.6 16.1-36.3 39.9-36.3s39.9 14.7 39.9 36.3c0 1.3-.1 2.6-.2 3.9h18c.1-1.3.1-2.6.1-3.9.2-30.1-24.3-52.3-57.8-52.3zM84.1 0v41.4H17.5V0H0v101.6h17.5V57.2h66.7v44.4h17.5V0H84.1zm188.1 101.6h-17.6V0h61.5c5-.1 10 .6 14.8 2 4.2 1.2 8.1 3.2 11.5 5.9 3.2 2.6 5.8 5.9 7.5 9.7 1.8 4.3 2.7 8.9 2.7 13.5 0 7.7-2.1 14.1-6.2 19.3-2 2.5-4.5 4.6-7.3 6.3-3 1.8-6.2 3.1-9.6 4l25.6 40.9H335l-24-39.3h-38.7v39.3h-.1zm0-86.1v31.1h42.9c12.8 0 20.1-5.7 20.1-15.6s-7.3-15.6-20.1-15.6l-42.9.1zM376.6 0v101.6h16.7V0h-16.7zm65.6 85.8L515.9 14V0h-98.1v15.8h73l-73.5 71.8v14h99.2V85.8h-74.3zm152.5-28.4c33.5 0 58-22.2 58-52.3 0-1.3 0-2.6-.1-3.9h-18.1c.1 1.3.2 2.6.2 3.9 0 21.6-16.1 36.3-39.9 36.3s-39.9-14.7-39.9-36.3c0-1.3.1-2.6.2-3.9H537c-.1 1.3-.1 2.6-.1 3.9-.2 30.1 24.3 52.3 57.8 52.3zM752.8 0v75.4L687.7 0h-18.3v101.6h17V22.8l67.9 78.8h15.5V0h-17zm89.4 42.9c-25.8-3.1-32.1-5.1-32.1-13.1 0-7.3 8.2-14.2 27.7-14.2 17.2 0 30.9 6 38 16.9l12.6-10.8C880 8.4 860.2 0 838.4 0c-27.5 0-45 13.3-45 31.6 0 19.7 17.8 23.9 42.9 26.8 28.8 3.4 37 4.2 37 14.9 0 9-12.8 15-30.5 15-14.8 0-32.7-5.1-43.8-21.9l-12.6 11.9c9.2 15.3 31.7 25.6 56 25.6 26.8 0 48-11.3 48-32.8s-18.3-24.7-48.2-28.2z" fill="#fff"></path></svg>