<svg xmlns="http://www.w3.org/2000/svg" width="45" height="40" viewBox="0 0 45 40"><g><g><path fill="#fff" d="M22.504 18C9.514 18 0 26.69 0 38.475c0 .511.016 1.022.057 1.525h7.02a16.329 16.329 0 0 1-.071-1.525c0-8.47 6.249-14.228 15.498-14.228 9.25 0 15.501 5.765 15.501 14.228 0 .52-.024 1.022-.072 1.525h7.01c.04-.503.057-1.014.057-1.525C45 26.69 35.492 18 22.504 18z"/></g><g><path fill="#fff" d="M22.496 22C35.484 22 45 13.314 45 1.526c0-.51-.016-1.023-.057-1.526h-7.022c.049.503.073 1.007.073 1.526 0 8.468-6.249 14.223-15.498 14.223-9.25 0-15.498-5.755-15.498-14.223 0-.519.024-1.023.071-1.526H.057A19.11 19.11 0 0 0 0 1.526C0 13.314 9.506 22 22.496 22z"/></g></g></svg>