<?xml version="1.0" standalone="no"?>
<!DOCTYPE svg PUBLIC "-//W3C//DTD SVG 20010904//EN"
 "http://www.w3.org/TR/2001/REC-SVG-20010904/DTD/svg10.dtd">
<svg version="1.0" xmlns="http://www.w3.org/2000/svg"
 width="310.000000pt" height="310.000000pt" viewBox="0 0 310.000000 310.000000"
 preserveAspectRatio="xMidYMid meet">
<metadata>
Created by potrace 1.11, written by Peter Selinger 2001-2013
</metadata>
<g transform="translate(0.000000,310.000000) scale(0.100000,-0.100000)"
fill="#000000" stroke="none">
<path d="M1420 3033 c-463 -47 -865 -289 -1116 -674 -107 -163 -181 -344 -220
-544 -25 -125 -25 -405 0 -530 140 -702 722 -1202 1421 -1220 159 -4 261 7
410 45 673 169 1147 800 1120 1490 -28 696 -518 1271 -1205 1410 -99 20 -318
33 -410 23z m350 -318 c182 -27 323 -91 432 -194 93 -87 133 -168 133 -266 0
-58 -5 -79 -29 -123 -80 -143 -260 -176 -382 -69 -81 71 -109 161 -80 258 33
114 125 179 253 179 40 0 73 4 73 9 0 42 -165 136 -305 172 -49 13 -129 23
-207 26 -71 3 -128 10 -128 14 0 14 135 10 240 -6z m-320 -3 c0 -5 -33 -25
-74 -46 -182 -89 -282 -302 -315 -671 -10 -104 -6 -716 4 -820 31 -299 90
-494 181 -595 38 -42 124 -90 160 -90 13 0 26 -4 29 -10 4 -6 -5 -8 -22 -5
-15 2 -59 9 -96 15 -377 60 -684 388 -778 830 -32 151 -32 401 0 550 94 440
384 743 793 829 108 23 118 24 118 13z m887 -1672 l3 -555 -33 65 c-44 88 -93
123 -183 128 -86 6 -141 -11 -231 -70 -85 -55 -175 -102 -218 -113 -53 -13
-135 -22 -135 -15 0 4 18 10 41 13 94 12 182 98 221 215 21 64 22 84 26 480
l3 412 252 -2 252 -3 2 -555z"/>
</g>
</svg>
